<svg width="256" height="48" viewBox="0 0 256 48" fill="none" xmlns="http://www.w3.org/2000/svg">
<path d="M23.3203 31.5604V16.5576H26.0589V29.1429H32.4923V31.5604H23.3203Z" fill="black"/>
<path d="M37.3627 31.8025C36.6791 31.8191 35.9999 31.6887 35.371 31.42C34.8305 31.1941 34.3716 30.809 34.0551 30.316C33.7387 29.8229 33.5797 29.2453 33.5994 28.6598C33.5797 28.0822 33.7242 27.5109 34.016 27.0121C34.3079 26.5133 34.7352 26.1075 35.2484 25.8418C35.9169 25.4923 36.6429 25.2662 37.3916 25.1743L40.9781 24.5897V26.6067L37.8968 27.1299C37.4666 27.18 37.0604 27.3543 36.7277 27.6314C36.6006 27.7529 36.5008 27.9 36.4349 28.063C36.369 28.226 36.3384 28.4011 36.3452 28.5768C36.3401 28.7503 36.3767 28.9225 36.4521 29.0788C36.5275 29.2352 36.6393 29.3711 36.7782 29.4752C37.0913 29.7048 37.4727 29.8218 37.8607 29.8072C38.3707 29.8149 38.8741 29.6906 39.322 29.4463C39.736 29.2203 40.0785 28.8828 40.3106 28.4721C40.5487 28.0545 40.6731 27.5818 40.6714 27.101V24.2722C40.6748 24.0466 40.6268 23.8232 40.5312 23.6188C40.4355 23.4144 40.2947 23.2344 40.1194 23.0923C39.7064 22.7615 39.1866 22.5934 38.6581 22.6197C38.1232 22.6117 37.599 22.7692 37.1571 23.0707C36.7261 23.3674 36.3932 23.7856 36.2009 24.2722L34.036 23.2222C34.2484 22.6468 34.5976 22.1316 35.0535 21.7212C35.5255 21.2913 36.0738 20.9536 36.67 20.7254C37.3262 20.4796 38.0223 20.3572 38.723 20.3646C39.5452 20.3422 40.3619 20.5062 41.1116 20.8445C41.7603 21.146 42.3133 21.6204 42.7101 22.2156C43.1036 22.8241 43.3047 23.537 43.2874 24.2614V31.5607H40.7869V29.6881L41.3606 29.6484C41.0953 30.0966 40.7547 30.4957 40.3539 30.8283C39.957 31.1467 39.506 31.3912 39.0225 31.5499C38.487 31.7254 37.9262 31.8107 37.3627 31.8025Z" fill="black"/>
<path d="M45.7227 31.5608V20.6063H48.2159V22.7712L48.0174 22.3888C48.2485 21.7575 48.6925 21.2266 49.2731 20.8878C49.8964 20.5356 50.6033 20.3586 51.3189 20.3754C52.0738 20.358 52.8202 20.5384 53.4838 20.8986C54.0927 21.2403 54.593 21.7468 54.9271 22.3599C55.2863 23.0239 55.4666 23.77 55.4503 24.5248V31.5608H52.7911V25.1382C52.803 24.7051 52.7062 24.2759 52.5096 23.8898C52.3318 23.5502 52.0633 23.2667 51.7339 23.0707C51.3792 22.8812 50.9832 22.7821 50.5811 22.7821C50.1789 22.7821 49.7829 22.8812 49.4282 23.0707C49.094 23.264 48.8213 23.548 48.6417 23.8898C48.4451 24.2759 48.3483 24.7051 48.3602 25.1382V31.5608H45.7227Z" fill="black"/>
<path d="M62.9821 35.9986C62.2062 36.0063 61.4355 35.8705 60.7089 35.5981C60.0402 35.3468 59.4273 34.9667 58.9048 34.4795C58.4156 34.013 58.0445 33.4366 57.8224 32.7981L60.2796 31.8708C60.4349 32.3798 60.7628 32.8187 61.2069 33.112C61.7333 33.4421 62.3467 33.6068 62.9676 33.5847C63.458 33.5935 63.9441 33.4911 64.3893 33.2852C64.7951 33.0908 65.1332 32.7791 65.3599 32.3904C65.5971 31.9706 65.7156 31.4941 65.7026 31.0121V28.5188L66.2078 29.125C65.8568 29.7561 65.3321 30.2733 64.696 30.6152C64.0273 30.96 63.2832 31.1324 62.5311 31.1167C61.5704 31.1323 60.6233 30.8892 59.7888 30.4131C58.9935 29.9536 58.3396 29.2846 57.8982 28.4791C57.4427 27.6318 57.2152 26.6806 57.2379 25.7189C57.2198 24.7557 57.4563 23.8048 57.9234 22.9622C58.3642 22.1698 59.0113 21.5115 59.7961 21.0571C60.6169 20.5875 61.5494 20.3481 62.495 20.3643C63.2485 20.3479 63.9937 20.5243 64.6599 20.8767C65.2959 21.2318 65.833 21.7403 66.2222 22.356L65.8614 23.0236V20.6061H68.3582V31.0193C68.3727 31.9191 68.1326 32.8047 67.6655 33.5739C67.2029 34.3234 66.5491 34.9361 65.7712 35.3491C64.9108 35.7964 63.9516 36.0198 62.9821 35.9986ZM62.863 28.6884C63.3797 28.704 63.8909 28.5793 64.3424 28.3276C64.7647 28.0797 65.1106 27.7201 65.3418 27.2884C65.5897 26.8173 65.7139 26.2908 65.7026 25.7586C65.7149 25.2296 65.5907 24.7064 65.3418 24.2395C65.1052 23.7933 64.749 23.4219 64.313 23.167C63.8771 22.9121 63.3787 22.7837 62.8738 22.7962C62.3518 22.7882 61.8372 22.9203 61.3837 23.1787C60.945 23.4267 60.585 23.7931 60.3445 24.2359C60.0972 24.7034 59.973 25.2262 59.9837 25.7549C59.9726 26.2815 60.0969 26.802 60.3445 27.2668C60.5863 27.7022 60.9417 28.0638 61.3728 28.3131C61.8277 28.5669 62.3423 28.694 62.863 28.6812V28.6884Z" fill="black"/>
<path d="M71.0195 31.5609V16.5581H80.9889V18.9756H73.7726V22.8219H80.5992V25.2358H73.7581V29.1434H80.9745V31.5609H71.0195Z" fill="black"/>
<path d="M86.1025 31.8025C85.4189 31.8191 84.7396 31.6887 84.1108 31.42C83.5696 31.1946 83.1099 30.8098 82.7927 30.3167C82.4756 29.8236 82.3162 29.2457 82.3356 28.6597C82.3268 28.0937 82.4661 27.5352 82.7397 27.0397C83.0398 26.5348 83.4713 26.1208 83.9881 25.8417C84.6532 25.4868 85.3767 25.2546 86.1241 25.1562L89.7107 24.5717V26.5886L86.6293 27.1118C86.2004 27.1626 85.7956 27.3369 85.4638 27.6134C85.3368 27.7349 85.237 27.882 85.171 28.0449C85.1051 28.2079 85.0745 28.383 85.0814 28.5587C85.0762 28.7322 85.1129 28.9044 85.1882 29.0608C85.2636 29.2171 85.3754 29.3531 85.5144 29.4571C85.8274 29.6867 86.2089 29.8037 86.5968 29.7891C87.1008 29.7937 87.5976 29.6695 88.0401 29.4283C88.4541 29.2022 88.7966 28.8648 89.0287 28.4541C89.2668 28.0364 89.3912 27.5637 89.3895 27.083V24.2722C89.3929 24.0466 89.3449 23.8231 89.2493 23.6187C89.1536 23.4144 89.0128 23.2344 88.8375 23.0923C88.4282 22.7677 87.9163 22.6 87.3942 22.6196C86.8594 22.6116 86.3351 22.7692 85.8932 23.0707C85.4622 23.3673 85.1294 23.7856 84.9371 24.2722L82.7722 23.2222C82.9846 22.6468 83.3338 22.1316 83.7897 21.7212C84.2691 21.2886 84.8262 20.9507 85.4314 20.7254C86.0876 20.4793 86.7837 20.3569 87.4844 20.3645C88.2994 20.3454 89.1082 20.5094 89.8514 20.8444C90.5 21.1459 91.0531 21.6203 91.4498 22.2155C91.8396 22.8255 92.0393 23.5376 92.0235 24.2614V31.5607H89.5266V29.6881L90.0931 29.6484C89.8265 30.0967 89.4847 30.4958 89.0828 30.8282C88.6872 31.1466 88.2374 31.3911 87.755 31.5499C87.2219 31.7246 86.6635 31.8099 86.1025 31.8025Z" fill="black"/>
<path d="M98.6302 31.8023C97.5543 31.8278 96.4945 31.5381 95.5813 30.9689C94.7405 30.4452 94.1098 29.6434 93.7988 28.7029L95.7725 27.754C96.0266 28.3327 96.4332 28.8316 96.9488 29.1972C97.441 29.5425 98.0289 29.7254 98.6302 29.7204C99.0377 29.7439 99.4414 29.6309 99.7776 29.3993C99.9118 29.303 100.021 29.1755 100.095 29.0278C100.169 28.8801 100.206 28.7166 100.203 28.5514C100.21 28.3596 100.149 28.1716 100.03 28.021C99.9025 27.8704 99.7453 27.7476 99.5683 27.6602C99.3649 27.5565 99.1523 27.472 98.9332 27.4076L97.1292 26.906C96.3234 26.7089 95.5925 26.2813 95.0256 25.6757C94.5507 25.1374 94.2934 24.4414 94.304 23.7236C94.2904 23.097 94.4693 22.4812 94.8163 21.9592C95.1795 21.4414 95.6791 21.0342 96.2596 20.783C96.9244 20.4917 97.6447 20.3489 98.3704 20.3644C99.3354 20.3466 100.285 20.6045 101.109 21.1077C101.893 21.5956 102.49 22.3344 102.801 23.2041L100.784 24.1494C100.605 23.6624 100.273 23.2461 99.8389 22.9623C99.3984 22.6672 98.8789 22.5124 98.3487 22.5185C97.9755 22.4969 97.6062 22.6039 97.3024 22.8216C97.182 22.9128 97.0852 23.0315 97.0199 23.1676C96.9547 23.3038 96.9228 23.4536 96.9271 23.6046C96.9231 23.7925 96.9787 23.9769 97.0859 24.1314C97.2061 24.2866 97.362 24.4104 97.5405 24.4922C97.7587 24.5953 97.9842 24.6821 98.2152 24.752L99.9688 25.2788C100.76 25.4836 101.48 25.9017 102.051 26.4875C102.537 27.0277 102.795 27.7348 102.772 28.4612C102.784 29.0813 102.601 29.6896 102.249 30.2003C101.885 30.718 101.386 31.126 100.806 31.3802C100.119 31.6755 99.3773 31.8195 98.6302 31.8023Z" fill="black"/>
<path d="M110.01 31.8025C108.971 31.827 107.945 31.5622 107.048 31.0375C106.214 30.5381 105.531 29.8209 105.074 28.9628C104.596 28.076 104.348 27.0836 104.352 26.0763C104.336 25.0537 104.584 24.0442 105.074 23.1465C105.534 22.3058 106.209 21.6023 107.03 21.1078C107.866 20.6093 108.824 20.352 109.797 20.3646C110.579 20.3464 111.357 20.4902 112.081 20.7867C112.712 21.0546 113.279 21.453 113.744 21.9558C114.199 22.4502 114.554 23.0271 114.791 23.6552C115.036 24.3154 115.158 25.0149 115.152 25.7191C115.152 25.9103 115.152 26.1052 115.123 26.3036C115.107 26.482 115.07 26.6577 115.011 26.8268H106.546V24.8134H113.524L112.276 25.7624C112.402 25.214 112.37 24.6413 112.186 24.1098C112.018 23.6433 111.708 23.2417 111.298 22.9624C110.861 22.6713 110.344 22.5238 109.819 22.5403C109.3 22.5313 108.789 22.6743 108.35 22.9516C107.905 23.2417 107.563 23.6647 107.372 24.1604C107.138 24.7726 107.051 25.4315 107.12 26.0835C107.056 26.691 107.149 27.3049 107.39 27.866C107.61 28.3632 107.976 28.7812 108.44 29.0639C108.918 29.3553 109.468 29.5077 110.028 29.5041C110.567 29.5215 111.1 29.3892 111.569 29.1216C111.987 28.8752 112.332 28.5214 112.568 28.0969L114.701 29.1433C114.478 29.6787 114.134 30.1546 113.694 30.5324C113.22 30.9404 112.672 31.255 112.081 31.4597C111.417 31.6966 110.715 31.8126 110.01 31.8025Z" fill="black"/>
<path d="M0 31.7608V13.0202C0 12.7496 0.10748 12.4901 0.298795 12.2988C0.490111 12.1075 0.74959 12 1.02015 12H6.76322C7.03378 12 7.29326 12.1075 7.48457 12.2988C7.67589 12.4901 7.78337 12.7496 7.78337 13.0202V23.9963C7.77837 26.0573 6.95613 28.0322 5.49701 29.4877C4.03788 30.9433 2.06101 31.7608 0 31.7608Z" fill="#0155FF"/>
<path d="M17.205 27.6296C16.1464 27.8865 15.1842 28.4431 14.4337 29.2327C13.6832 30.0223 13.1761 31.0114 12.9733 32.0817C12.9733 32.1068 12.9633 32.1308 12.9456 32.1485C12.9279 32.1663 12.9038 32.1762 12.8788 32.1762C12.8537 32.1762 12.8297 32.1663 12.812 32.1485C12.7943 32.1308 12.7843 32.1068 12.7843 32.0817C12.5815 31.0114 12.0744 30.0223 11.3239 29.2327C10.5734 28.4431 9.61124 27.8865 8.5526 27.6296C8.51586 27.6296 8.48062 27.615 8.45464 27.589C8.42866 27.563 8.41406 27.5278 8.41406 27.4911C8.41406 27.4543 8.42866 27.4191 8.45464 27.3931C8.48062 27.3671 8.51586 27.3525 8.5526 27.3525C9.61124 27.0956 10.5734 26.539 11.3239 25.7494C12.0744 24.9598 12.5815 23.9707 12.7843 22.9004C12.7843 22.8753 12.7943 22.8513 12.812 22.8336C12.8297 22.8159 12.8537 22.8059 12.8788 22.8059C12.9038 22.8059 12.9279 22.8159 12.9456 22.8336C12.9633 22.8513 12.9733 22.8753 12.9733 22.9004C13.1761 23.9707 13.6832 24.9598 14.4337 25.7494C15.1842 26.539 16.1464 27.0956 17.205 27.3525C17.2417 27.3525 17.277 27.3671 17.303 27.3931C17.3289 27.4191 17.3435 27.4543 17.3435 27.4911C17.3435 27.5278 17.3289 27.563 17.303 27.589C17.277 27.615 17.2417 27.6296 17.205 27.6296Z" fill="#0155FF"/>
<rect x="127.152" y="12" width="56" height="24" rx="8" fill="#0155FF" fill-opacity="0.1"/>
<rect x="127.652" y="12.5" width="55" height="23" rx="7.5" stroke="#0155FF" stroke-opacity="0.7"/>
<path d="M140.013 28.5V19.7727H143.354C143.985 19.7727 144.509 19.8722 144.926 20.071C145.347 20.267 145.661 20.5355 145.868 20.8764C146.078 21.2173 146.184 21.6037 146.184 22.0355C146.184 22.3906 146.115 22.6946 145.979 22.9474C145.843 23.1974 145.659 23.4006 145.429 23.5568C145.199 23.7131 144.942 23.8253 144.658 23.8935V23.9787C144.968 23.9957 145.265 24.0909 145.549 24.2642C145.836 24.4347 146.07 24.6761 146.252 24.9886C146.434 25.3011 146.525 25.679 146.525 26.1222C146.525 26.5739 146.415 26.9801 146.196 27.3409C145.978 27.6989 145.648 27.9815 145.208 28.1889C144.767 28.3963 144.213 28.5 143.546 28.5H140.013ZM141.594 27.179H143.294C143.868 27.179 144.282 27.0696 144.534 26.8509C144.79 26.6293 144.918 26.3452 144.918 25.9986C144.918 25.7401 144.854 25.5071 144.726 25.2997C144.598 25.0895 144.417 24.9247 144.181 24.8054C143.945 24.6832 143.664 24.6222 143.337 24.6222H141.594V27.179ZM141.594 23.4844H143.158C143.431 23.4844 143.676 23.4347 143.895 23.3352C144.114 23.233 144.286 23.0895 144.411 22.9048C144.539 22.7173 144.603 22.4957 144.603 22.2401C144.603 21.902 144.483 21.6236 144.245 21.4048C144.009 21.1861 143.658 21.0767 143.192 21.0767H141.594V23.4844ZM148.14 28.5V19.7727H153.816V21.098H149.721V23.4673H153.522V24.7926H149.721V27.1747H153.85V28.5H148.14ZM155.285 21.098V19.7727H162.248V21.098H159.551V28.5H157.983V21.098H155.285ZM163.897 28.5H162.209L165.282 19.7727H167.233L170.31 28.5H168.623L166.292 21.5625H166.224L163.897 28.5ZM163.952 25.0781H168.555V26.348H163.952V25.0781Z" fill="#0155FF"/>
</svg>
